<svg xmlns="http://www.w3.org/2000/svg" xmlns:xlink="http://www.w3.org/1999/xlink" width="900" height="900" viewBox="0 0 180 180">
					<defs>
						<path id="s" fill="#00a0ce" d="M0,0l15 15l-15,15z"/>
					</defs>
					<g id="b">
					<use x="-15" y="-15" transform="matrix(-1 0 0 1 0 0)" fill-opacity="0.3" xlink:href="#s" />
					<use x="0" y="0" fill-opacity="0.44999999999999996" xlink:href="#s" />
					<use x="-15" y="15" transform="matrix(-1 0 0 1 0 0)" fill-opacity="0.44999999999999996" xlink:href="#s" />
					<use x="0" y="30" fill-opacity="0.44999999999999996" xlink:href="#s" />
					<use x="-15" y="45" transform="matrix(-1 0 0 1 0 0)" fill-opacity="0.6" xlink:href="#s" />
					<use x="0" y="60" fill-opacity="0.3" xlink:href="#s" />
					<use x="-15" y="75" transform="matrix(-1 0 0 1 0 0)" fill-opacity="0.3" xlink:href="#s" />
					<use x="15" y="-15" fill-opacity="0.44999999999999996" xlink:href="#s" />
					<use x="-30" y="0" transform="matrix(-1 0 0 1 0 0)" fill-opacity="0.6" xlink:href="#s" />
					<use x="15" y="15" fill-opacity="0.44999999999999996" xlink:href="#s" />
					<use x="-30" y="30" transform="matrix(-1 0 0 1 0 0)" fill-opacity="0.3" xlink:href="#s" />
					<use x="15" y="45" fill-opacity="0.15" xlink:href="#s" />
					<use x="-30" y="60" transform="matrix(-1 0 0 1 0 0)" fill-opacity="0.3" xlink:href="#s" />
					<use x="15" y="75" fill-opacity="0.44999999999999996" xlink:href="#s" />
					<use x="-45" y="-15" transform="matrix(-1 0 0 1 0 0)" fill-opacity="0.3" xlink:href="#s" />
					<use x="30" y="0" fill-opacity="0.3" xlink:href="#s" />
					<use x="-45" y="15" transform="matrix(-1 0 0 1 0 0)" fill-opacity="0.44999999999999996" xlink:href="#s" />
					<use x="30" y="30" fill-opacity="0.3" xlink:href="#s" />
					<use x="-45" y="45" transform="matrix(-1 0 0 1 0 0)" fill-opacity="0.15" xlink:href="#s" />
					<use x="30" y="60" fill-opacity="0.3" xlink:href="#s" />
					<use x="-45" y="75" transform="matrix(-1 0 0 1 0 0)" fill-opacity="0.3" xlink:href="#s" />
					<use x="45" y="-15" fill-opacity="0.3" xlink:href="#s" />
					<use x="-60" y="0" transform="matrix(-1 0 0 1 0 0)" fill-opacity="0.3" xlink:href="#s" />
					<use x="45" y="15" fill-opacity="0.15" xlink:href="#s" />
					<use x="-60" y="30" transform="matrix(-1 0 0 1 0 0)" fill-opacity="0.44999999999999996" xlink:href="#s" />
					<use x="45" y="45" fill-opacity="0.44999999999999996" xlink:href="#s" />
					<use x="-60" y="60" transform="matrix(-1 0 0 1 0 0)" fill-opacity="0.15" xlink:href="#s" />
					<use x="45" y="75" fill-opacity="0.3" xlink:href="#s" />
					<use x="-75" y="-15" transform="matrix(-1 0 0 1 0 0)" fill-opacity="0.44999999999999996" xlink:href="#s" />
					<use x="60" y="0" fill-opacity="0.6" xlink:href="#s" />
					<use x="-75" y="15" transform="matrix(-1 0 0 1 0 0)" fill-opacity="0.15" xlink:href="#s" />
					<use x="60" y="30" fill-opacity="0.3" xlink:href="#s" />
					<use x="-75" y="45" transform="matrix(-1 0 0 1 0 0)" fill-opacity="0.44999999999999996" xlink:href="#s" />
					<use x="60" y="60" fill-opacity="0.15" xlink:href="#s" />
					<use x="-75" y="75" transform="matrix(-1 0 0 1 0 0)" fill-opacity="0.44999999999999996" xlink:href="#s" />
					<use x="75" y="-15" fill-opacity="0.3" xlink:href="#s" />
					<use x="-90" y="0" transform="matrix(-1 0 0 1 0 0)" fill-opacity="0.3" xlink:href="#s" />
					<use x="75" y="15" fill-opacity="0.6" xlink:href="#s" />
					<use x="-90" y="30" transform="matrix(-1 0 0 1 0 0)" fill-opacity="0.3" xlink:href="#s" />
					<use x="75" y="45" fill-opacity="0.44999999999999996" xlink:href="#s" />
					<use x="-90" y="60" transform="matrix(-1 0 0 1 0 0)" fill-opacity="0.3" xlink:href="#s" />
					<use x="75" y="75" fill-opacity="0.3" xlink:href="#s" />
					</g>
					<use x="-90" y="90" transform="matrix(-1 0 0 1 0 0)" xlink:href="#b" />
					<use x="-180" y="-60" transform="matrix(-1 0 0 -1 0 0)" xlink:href="#b" />
					<use x="90" y="-120" transform="matrix(1 0 0 -1 0 0)" xlink:href="#b" />
					<use x="90" y="-210" transform="matrix(1 0 0 -1 0 0)" xlink:href="#b" />
				</svg>
				